<svg xmlns="http://www.w3.org/2000/svg" viewBox="0 0 400.44 75.29"><g><path fill="#464646" d="M218.11 43.02c4.43-1.99 7.74-4.67 9.91-8.04 2.18-3.36 3.27-7.56 3.27-12.6 0-7.1-2.37-12.59-7.1-16.48-4.72-3.89-11.45-5.83-20.17-5.83h-1.95l-4.33 12.32h6.28c4.09 0 7.13 1 9.1 2.99s2.97 4.73 2.97 8.21-1.05 6.09-3.14 8.04c-2.1 1.94-5.05 2.92-8.87 2.92h-14.12l-4.33 12.32h18.3l13.84 27.03h16.33v-.71l-15.97-30.17ZM60.14 12.39H37.52V73.9H22.31V12.39H0V.07h60.14v12.32Z"/><path fill="#464646" d="M281.1 58.69h-26.67l-5.07 15.21h-16.18L260.66.07h14.1L302.4 73.9h-16.18l-5.12-15.21Zm-22.57-12.32h18.46l-9.28-27.64-9.18 27.64ZM323.45 73.9h-15.21V.07h15.21V73.9ZM400.44 73.9h-15.21l-29.61-48.58V73.9h-15.21V.07h15.21l29.67 48.68V.07h15.16V73.9ZM87.46 54.83 71.05.07H54.17l26.07 75.22 7.22-20.46z"/><path fill="#cf3476" d="m162.4 0-25.98 73.9h-15.1L147.4 0h15zM134.56 0l-25.99 73.9h-15.1L119.55 0h15.01zM190.25 0l-25.98 73.9h-15.1L175.25 0h15z"/></g></svg>
